<svg width="67" height="22" viewBox="0 0 67 22" fill="none" xmlns="http://www.w3.org/2000/svg">
<path d="M0.337891 6.93024H3.15839V2.49801H6.86539V6.93024H10.9753V10.3148H6.86539V18.6958H10.9753V21.758H6.22069C4.52839 21.758 3.15839 20.4687 3.15839 18.7764V10.3148H0.337891V6.93024ZM25.4002 12.3295C25.4002 8.9449 22.7409 6.76907 18.9533 6.76907C15.1658 6.76907 12.587 9.02548 12.4258 12.0071H15.6493C15.7299 10.6372 16.8581 9.42841 18.7921 9.42841C20.7262 9.42841 21.7738 10.476 21.7738 11.9265C21.7738 12.4906 21.4515 12.8936 20.7262 12.8936H17.9863C14.6017 12.8936 12.4258 14.7471 12.4258 17.5676C12.4258 20.1463 14.4405 21.9998 17.3416 21.9998C19.4368 21.9998 21.2097 21.0328 21.7738 19.5822V21.758H25.4002V12.3295ZM18.4698 15.0694H21.7738C21.7738 17.5676 20.4845 19.1793 18.228 19.1793C16.7775 19.1793 15.9716 18.3734 15.9716 17.1646C15.9716 15.9558 16.9387 15.0694 18.4698 15.0694ZM27.8178 0.644531V4.59325H31.6859V0.644531H27.8178ZM27.979 6.93024V21.758H31.6053V6.93024H27.979ZM34.3453 0.644531V21.758H37.9716V0.644531H34.3453ZM47.642 6.76907C43.1291 6.76907 39.8251 9.99251 39.8251 14.4247C39.8251 18.8569 43.1291 21.9998 47.642 21.9998C52.1548 21.9998 55.3782 18.7764 55.3782 14.4247C55.3782 10.0731 52.0742 6.76907 47.642 6.76907ZM47.642 18.9375C45.1438 18.9375 43.4515 17.0035 43.4515 14.4247C43.4515 11.846 45.1438 9.91193 47.642 9.91193C50.1401 9.91193 51.7519 11.6848 51.7519 14.4247C51.7519 17.1646 50.0595 18.9375 47.642 18.9375ZM66.3379 6.93024V9.99251H64.0815C61.7445 9.99251 60.8581 12.0071 60.8581 14.7471V21.758H57.2317V6.93024H60.8581V9.58958C61.5834 7.65552 62.7921 6.93024 64.6456 6.93024H66.3379Z" fill="#2E2C36"/>
</svg>
